<?xml version="1.0" encoding="UTF-8" standalone="no"?>
<svg
   id="vector"
   width="270"
   height="270"
   viewBox="0 0 270.00001 269.99999"
   version="1.1"
   sodipodi:docname="ic_launcher_foreground.svg"
   inkscape:version="1.2.1 (9c6d41e410, 2022-07-14)"
   xmlns:inkscape="http://www.inkscape.org/namespaces/inkscape"
   xmlns:sodipodi="http://sodipodi.sourceforge.net/DTD/sodipodi-0.dtd"
   xmlns="http://www.w3.org/2000/svg"
   xmlns:svg="http://www.w3.org/2000/svg">
  <defs
     id="defs116" />
  <sodipodi:namedview
     id="namedview114"
     pagecolor="#ffffff"
     bordercolor="#000000"
     borderopacity="0.25"
     inkscape:showpageshadow="2"
     inkscape:pageopacity="0.0"
     inkscape:pagecheckerboard="0"
     inkscape:deskcolor="#d1d1d1"
     showgrid="false"
     inkscape:zoom="0.97453704"
     inkscape:cx="-41.045131"
     inkscape:cy="20.522565"
     inkscape:window-width="952"
     inkscape:window-height="1014"
     inkscape:window-x="5"
     inkscape:window-y="5"
     inkscape:window-maximized="1"
     inkscape:current-layer="vector" />
  <g
     id="g_0"
     transform="translate(-6.31,-17.168647)">
    <path
       fill="#2309db"
       d="m 245.05,148.63 c -2.801,-0.003 -5.587,0.422 -8.26,1.26 -1.639,-8.526 -6.092,-16.26 -12.643,-21.959 -6.55,-5.698 -14.826,-9.038 -23.497,-9.481 -4.737,-13.019 -13.862,-23.992 -25.799,-31.023 -11.937,-7.031 -25.958,-9.692 -39.641,-7.522 -13.683,2.169 -26.193,9.036 -35.37,19.415 -9.969,-3.375 -20.789,-3.296 -30.707,0.225 -9.918,3.52 -18.368,10.281 -23.978,19.185 -5.61,8.904 -8.061,19.444 -6.955,29.91 h -0.26 c -7.325,0 -14.358,2.913 -19.537,8.093 -5.18,5.179 -8.093,12.212 -8.093,19.537 0,7.325 2.913,14.358 8.093,19.537 5.179,5.18 12.212,8.093 19.537,8.093 h 207.11 c 7.325,0 14.358,-2.913 19.537,-8.093 5.18,-5.179 8.093,-12.212 8.093,-19.537 0,-7.325 -2.913,-14.358 -8.093,-19.537 -5.179,-5.18 -12.212,-8.093 -19.537,-8.093 z"
       stroke-width="1"
       id="path106" />
    <path
       fill="#2149d8"
       d="m 208.61,125 c 0,-1.78 -0.06,-3.55 -0.13,-5.31 -2.561,-0.68 -5.184,-1.095 -7.83,-1.24 -4.737,-13.019 -13.862,-23.992 -25.799,-31.023 -11.937,-7.031 -25.958,-9.692 -39.641,-7.522 -13.683,2.169 -26.193,9.036 -35.37,19.415 -9.969,-3.375 -20.789,-3.296 -30.707,0.225 -9.918,3.52 -18.368,10.281 -23.978,19.185 -5.61,8.904 -8.061,19.444 -6.955,29.91 h -0.26 c -7.325,0 -14.358,2.913 -19.537,8.093 -5.18,5.179 -8.093,12.212 -8.093,19.537 0,7.325 2.913,14.358 8.093,19.537 5.179,5.18 12.212,8.093 19.537,8.093 H 179 c 19.116,-21.827 29.646,-49.885 29.61,-78.9 z"
       stroke-width="1"
       id="path108" />
    <path
       fill="#5c89f7"
       d="m 99.84,99.32 c -9.969,-3.375 -20.789,-3.296 -30.707,0.225 -9.918,3.52 -18.368,10.281 -23.978,19.185 -5.61,8.904 -8.061,19.444 -6.955,29.91 h -0.26 c -7.157,0.025 -14.031,2.831 -19.161,7.821 -5.131,4.991 -8.126,11.785 -8.349,18.938 -0.223,7.154 2.343,14.121 7.153,19.421 4.809,5.301 11.496,8.529 18.637,9 30.996,-0.89 60.453,-13.84 82.064,-36.078 21.611,-22.238 33.713,-52.053 33.716,-83.062 0,-1.68 -0.06,-3.35 -0.13,-5 -2.427,-0.319 -4.872,-0.486 -7.32,-0.5 -8.455,-0.009 -16.815,1.782 -24.524,5.254 -7.709,3.473 -14.591,8.548 -20.186,14.886 z"
       stroke-width="1"
       id="path110" />
  </g>
</svg>
